<svg width="381" height="286" viewBox="0 0 381 286" fill="none" xmlns="http://www.w3.org/2000/svg">
<path d="M131.589 1.64374C86.1354 8.04858 49.0791 24.8613 25.3523 50.2138C14.6886 61.5557 8.69031 71.163 4.02494 84.6399C-1.04031 98.9173 -0.907016 118.132 4.15824 133.076C6.15768 138.948 10.0233 147.354 12.6892 151.757C18.6875 161.631 34.8164 178.177 45.6134 185.383C65.6078 198.86 94.1332 209.935 119.993 214.338C125.724 215.405 126.124 217.14 122.392 225.413C119.06 232.618 110.662 240.891 102.531 245.028C94.2665 249.298 92.267 253.034 96.3992 257.037C97.8655 258.638 101.198 259.172 108.929 259.172C151.051 259.172 188.64 242.759 205.169 217.274C210.901 208.333 211.434 205.398 207.435 202.729C203.569 199.927 199.837 201.395 196.905 206.999C189.707 221.01 173.844 233.019 153.717 239.824C147.452 241.825 128.79 245.828 125.325 245.828C124.391 245.828 126.124 242.359 128.924 238.223C131.856 234.086 135.188 227.681 136.255 223.945C138.521 216.473 138.921 206.332 137.055 205.264C136.388 204.731 130.523 203.53 123.992 202.462C105.997 199.26 89.6011 194.189 74.8052 187.251C44.8136 172.973 27.4851 156.561 16.9547 132.409C14.0222 126.004 13.6223 123.069 13.6223 109.058C13.6223 89.9772 15.755 83.3055 26.6853 68.094C42.9474 45.4102 71.4728 28.1971 108.129 18.9902C178.643 1.10999 260.087 22.8598 292.478 68.094C302.209 81.7043 305.141 90.1107 305.941 106.39C306.341 117.598 305.941 121.067 303.542 128.406C298.076 144.952 288.079 158.296 271.417 171.105C260.62 179.512 259.021 182.314 263.02 186.317C266.352 189.653 268.885 188.852 278.349 181.78C296.344 168.303 309.673 150.423 315.805 131.742C320.204 118.132 319.937 98.2502 315.138 84.6399C301.675 46.2108 261.02 16.4549 206.102 4.9796C192.639 2.17746 185.041 1.37689 164.913 0.976562C151.317 0.709717 136.388 0.976562 131.589 1.64374Z" fill="black"/>
<path d="M301.007 45.9312C304.739 49.8008 308.738 54.6044 309.938 56.6059C311.138 58.6074 312.87 60.6089 313.804 60.8758C317.936 62.477 334.998 74.6195 341.662 80.6241C351.126 89.4307 361.524 105.043 364.856 115.851C367.789 125.591 368.322 141.07 366.056 150.944C364.323 158.95 357.791 171.626 351.126 180.299C333.931 202.716 295.809 222.331 256.486 229.136C249.955 230.204 244.09 231.405 243.423 231.939C241.557 233.006 241.957 242.613 244.223 250.486C245.423 254.355 248.622 260.894 251.554 265.03C255.153 270.234 256.22 272.503 254.887 272.503C249.688 272.503 225.961 266.498 218.897 263.429C209.966 259.559 197.569 251.553 193.704 247.283L191.171 244.481L186.106 247.417C183.173 249.018 180.907 250.753 180.907 251.287C180.907 251.82 184.373 255.423 188.638 259.159C197.836 267.432 216.497 276.906 230.36 280.375C252.621 285.979 280.08 287.714 284.078 283.711C287.944 279.841 286.211 275.972 279.013 272.236C269.949 267.699 262.618 260.894 259.019 253.555C254.22 243.948 254.487 242.08 260.618 241.012C286.345 236.609 315.003 225.4 334.864 212.057C339.263 209.121 347.128 202.45 352.326 197.246C382.584 167.089 388.716 128.127 368.588 93.9675C357.658 75.5536 332.332 54.8713 307.405 44.1965C300.874 41.261 295.275 38.9926 294.875 38.9926C294.609 38.9926 297.275 42.195 301.007 45.9312Z" fill="black"/>
<path d="M122.798 48.7227L118.933 52.0585V109.702V167.346L122.798 170.682C125.864 173.217 127.73 173.884 131.063 173.35C136.394 172.416 225.836 121.444 229.968 116.908C233.701 112.638 233.701 106.767 229.968 102.497C225.836 97.9599 136.528 46.988 131.063 46.054C127.73 45.5202 125.864 46.1874 122.798 48.7227Z" fill="black"/>
</svg>
